<svg id="Capa_1" data-name="Capa 1" xmlns="http://www.w3.org/2000/svg" viewBox="0 0 457.76 298.62"><defs><style>.cls-1{fill:#fff;}.cls-2{fill:#fa1f6f;}</style></defs><path class="cls-1" d="M484.88,312.14a15.61,15.61,0,0,1-15.61,15.61H42.73a15.61,15.61,0,0,1-15.61-15.61V44.74A15.61,15.61,0,0,1,42.73,29.13H469.27a15.61,15.61,0,0,1,15.61,15.61h0ZM58.12,103.05a.38.38,0,0,0,.37.37h63.44a.38.38,0,0,0,.37-.37.35.35,0,0,0,0-.18L97.83,60.32a.36.36,0,0,0-.32-.19h-39a.38.38,0,0,0-.37.37h0Zm125-42.73a.4.4,0,0,0-.34-.2H134.1a.39.39,0,0,0-.38.4.41.41,0,0,0,.05.18l24.42,42.55a.4.4,0,0,0,.34.2l48.71,0a.39.39,0,0,0,.38-.4.41.41,0,0,0-.05-.18Zm60.38,43a.3.3,0,0,0,.27.16h48.91a.31.31,0,0,0,.31-.31.28.28,0,0,0,0-.15l-24.52-42.7a.3.3,0,0,0-.27-.16H219.3a.31.31,0,0,0-.31.31.28.28,0,0,0,0,.15Zm110.27-43a.3.3,0,0,0-.26-.15H304.61a.29.29,0,0,0-.3.3.28.28,0,0,0,0,.15l24.53,42.73a.3.3,0,0,0,.26.15h48.91a.29.29,0,0,0,.3-.3.28.28,0,0,0,0-.15Zm100.07.21a.36.36,0,0,0-.36-.36H390.05a.36.36,0,0,0-.36.36.37.37,0,0,0,.05.18l24.45,42.61a.35.35,0,0,0,.31.18h39a.36.36,0,0,0,.36-.36Zm0,74.28a.27.27,0,0,0-.27-.27H58.4a.27.27,0,0,0-.27.27h0V296.49a.27.27,0,0,0,.27.27H453.6a.27.27,0,0,0,.27-.27h0Z" transform="translate(-27.12 -29.13)"/><path class="cls-2" d="M253.08,165.58q31.57,16.51,64.76,33.65c4.75,2.46,8.38,5.36,7.89,11a9.76,9.76,0,0,1-5.68,8.15q-37.07,19.36-84,43.77c-8.39,4.37-19-.76-18.92-10.83q.22-40.56,0-83.23a13.6,13.6,0,0,1,1.42-6.6c3.2-5.83,11.07-8,16.86-5Q243.89,160.76,253.08,165.58Z" transform="translate(-27.12 -29.13)"/></svg>